<svg xmlns="http://www.w3.org/2000/svg" xmlns:xlink="http://www.w3.org/1999/xlink" contentStyleType="text/css" data-diagram-type="CLASS" height="558px" preserveAspectRatio="none" style="width:455px;height:558px;background:#FFFFFF;" version="1.1" viewBox="0 0 455 558" width="455px" zoomAndPan="magnify"><defs/><g><!--class Main--><g class="entity" data-entity="Main" data-source-line="4" data-uid="ent0002" id="entity_Main"><rect fill="#F1F1F1" height="64.2969" rx="2.5" ry="2.5" style="stroke:#181818;stroke-width:0.5;" width="69.6338" x="192" y="12"/><ellipse cx="208.8958" cy="28" fill="#ADD1B2" rx="11" ry="11" style="stroke:#181818;stroke-width:1;"/><path d="M211.8646,33.6406 Q211.2864,33.9375 210.6458,34.0781 Q210.0052,34.2344 209.3021,34.2344 Q206.8021,34.2344 205.4739,32.5938 Q204.1614,30.9375 204.1614,27.8125 Q204.1614,24.6875 205.4739,23.0313 Q206.8021,21.375 209.3021,21.375 Q210.0052,21.375 210.6458,21.5313 Q211.3021,21.6875 211.8646,21.9844 L211.8646,24.7031 Q211.2396,24.125 210.6458,23.8594 Q210.0521,23.5781 209.4271,23.5781 Q208.0833,23.5781 207.3958,24.6563 Q206.7083,25.7188 206.7083,27.8125 Q206.7083,29.9063 207.3958,30.9844 Q208.0833,32.0469 209.4271,32.0469 Q210.0521,32.0469 210.6458,31.7813 Q211.2396,31.5 211.8646,30.9219 L211.8646,33.6406 Z " fill="#000000"/><text fill="#000000" font-family="sans-serif" font-size="14" lengthAdjust="spacing" textLength="33.4209" x="223.3171" y="32.8467">Main</text><line style="stroke:#181818;stroke-width:0.5;" x1="193" x2="260.6338" y1="44" y2="44"/><line style="stroke:#181818;stroke-width:0.5;" x1="193" x2="260.6338" y1="52" y2="52"/><text fill="#000000" font-family="sans-serif" font-size="14" lengthAdjust="spacing" textLength="57.6338" x="198" y="68.9951">+main()</text></g><!--class Server--><g class="entity" data-entity="Server" data-source-line="8" data-uid="ent0003" id="entity_Server"><rect fill="#F1F1F1" height="80.5938" rx="2.5" ry="2.5" style="stroke:#181818;stroke-width:0.5;" width="141.4863" x="156.5" y="131"/><ellipse cx="200.1093" cy="147" fill="#ADD1B2" rx="11" ry="11" style="stroke:#181818;stroke-width:1;"/><path d="M203.078,152.6406 Q202.4999,152.9375 201.8593,153.0781 Q201.2187,153.2344 200.5155,153.2344 Q198.0155,153.2344 196.6874,151.5938 Q195.3749,149.9375 195.3749,146.8125 Q195.3749,143.6875 196.6874,142.0313 Q198.0155,140.375 200.5155,140.375 Q201.2187,140.375 201.8593,140.5313 Q202.5155,140.6875 203.078,140.9844 L203.078,143.7031 Q202.453,143.125 201.8593,142.8594 Q201.2655,142.5781 200.6405,142.5781 Q199.2968,142.5781 198.6093,143.6563 Q197.9218,144.7188 197.9218,146.8125 Q197.9218,148.9063 198.6093,149.9844 Q199.2968,151.0469 200.6405,151.0469 Q201.2655,151.0469 201.8593,150.7813 Q202.453,150.5 203.078,149.9219 L203.078,152.6406 Z " fill="#000000"/><text fill="#000000" font-family="sans-serif" font-size="14" lengthAdjust="spacing" textLength="45.9102" x="220.4669" y="151.8467">Server</text><line style="stroke:#181818;stroke-width:0.5;" x1="157.5" x2="296.9863" y1="163" y2="163"/><line style="stroke:#181818;stroke-width:0.5;" x1="157.5" x2="296.9863" y1="171" y2="171"/><text fill="#000000" font-family="sans-serif" font-size="14" lengthAdjust="spacing" textLength="45.0352" x="162.5" y="187.9951">+Init()</text><text fill="#000000" font-family="sans-serif" font-size="14" lengthAdjust="spacing" textLength="129.4863" x="162.5" y="204.292">+RegisterRoutes()</text></g><!--class Config--><g class="entity" data-entity="Config" data-source-line="13" data-uid="ent0004" id="entity_Config"><rect fill="#F1F1F1" height="80.5938" rx="2.5" ry="2.5" style="stroke:#181818;stroke-width:0.5;" width="83.8525" x="66" y="267"/><ellipse cx="84.1201" cy="283" fill="#ADD1B2" rx="11" ry="11" style="stroke:#181818;stroke-width:1;"/><path d="M87.0889,288.6406 Q86.5107,288.9375 85.8701,289.0781 Q85.2295,289.2344 84.5264,289.2344 Q82.0264,289.2344 80.6982,287.5938 Q79.3857,285.9375 79.3857,282.8125 Q79.3857,279.6875 80.6982,278.0313 Q82.0264,276.375 84.5264,276.375 Q85.2295,276.375 85.8701,276.5313 Q86.5264,276.6875 87.0889,276.9844 L87.0889,279.7031 Q86.4639,279.125 85.8701,278.8594 Q85.2764,278.5781 84.6514,278.5781 Q83.3076,278.5781 82.6201,279.6563 Q81.9326,280.7188 81.9326,282.8125 Q81.9326,284.9063 82.6201,285.9844 Q83.3076,287.0469 84.6514,287.0469 Q85.2764,287.0469 85.8701,286.7813 Q86.4639,286.5 87.0889,285.9219 L87.0889,288.6406 Z " fill="#000000"/><text fill="#000000" font-family="sans-serif" font-size="14" lengthAdjust="spacing" textLength="44.9189" x="98.8135" y="287.8467">Config</text><line style="stroke:#181818;stroke-width:0.5;" x1="67" x2="148.8525" y1="299" y2="299"/><text fill="#000000" font-family="sans-serif" font-size="14" lengthAdjust="spacing" textLength="71.8525" x="72" y="315.9951">+Port : int</text><line style="stroke:#181818;stroke-width:0.5;" x1="67" x2="148.8525" y1="323.2969" y2="323.2969"/><text fill="#000000" font-family="sans-serif" font-size="14" lengthAdjust="spacing" textLength="56.4854" x="72" y="340.292">+Load()</text></g><!--class AuthService--><g class="entity" data-entity="AuthService" data-source-line="18" data-uid="ent0005" id="entity_AuthService"><rect fill="#F1F1F1" height="80.5938" rx="2.5" ry="2.5" style="stroke:#181818;stroke-width:0.5;" width="116.5537" x="168.5" y="267"/><ellipse cx="183.5" cy="283" fill="#ADD1B2" rx="11" ry="11" style="stroke:#181818;stroke-width:1;"/><path d="M186.4688,288.6406 Q185.8906,288.9375 185.25,289.0781 Q184.6094,289.2344 183.9063,289.2344 Q181.4063,289.2344 180.0781,287.5938 Q178.7656,285.9375 178.7656,282.8125 Q178.7656,279.6875 180.0781,278.0313 Q181.4063,276.375 183.9063,276.375 Q184.6094,276.375 185.25,276.5313 Q185.9063,276.6875 186.4688,276.9844 L186.4688,279.7031 Q185.8438,279.125 185.25,278.8594 Q184.6563,278.5781 184.0313,278.5781 Q182.6875,278.5781 182,279.6563 Q181.3125,280.7188 181.3125,282.8125 Q181.3125,284.9063 182,285.9844 Q182.6875,287.0469 184.0313,287.0469 Q184.6563,287.0469 185.25,286.7813 Q185.8438,286.5 186.4688,285.9219 L186.4688,288.6406 Z " fill="#000000"/><text fill="#000000" font-family="sans-serif" font-size="14" lengthAdjust="spacing" textLength="84.5537" x="197.5" y="287.8467">AuthService</text><line style="stroke:#181818;stroke-width:0.5;" x1="169.5" x2="284.0537" y1="299" y2="299"/><line style="stroke:#181818;stroke-width:0.5;" x1="169.5" x2="284.0537" y1="307" y2="307"/><text fill="#000000" font-family="sans-serif" font-size="14" lengthAdjust="spacing" textLength="80.9238" x="174.5" y="323.9951">+Register()</text><text fill="#000000" font-family="sans-serif" font-size="14" lengthAdjust="spacing" textLength="60.6689" x="174.5" y="340.292">+Login()</text></g><!--class TokenService--><g class="entity" data-entity="TokenService" data-source-line="23" data-uid="ent0006" id="entity_TokenService"><rect fill="#F1F1F1" height="80.5938" rx="2.5" ry="2.5" style="stroke:#181818;stroke-width:0.5;" width="126.4521" x="6" y="385"/><ellipse cx="21" cy="401" fill="#ADD1B2" rx="11" ry="11" style="stroke:#181818;stroke-width:1;"/><path d="M23.9688,406.6406 Q23.3906,406.9375 22.75,407.0781 Q22.1094,407.2344 21.4063,407.2344 Q18.9063,407.2344 17.5781,405.5938 Q16.2656,403.9375 16.2656,400.8125 Q16.2656,397.6875 17.5781,396.0313 Q18.9063,394.375 21.4063,394.375 Q22.1094,394.375 22.75,394.5313 Q23.4063,394.6875 23.9688,394.9844 L23.9688,397.7031 Q23.3438,397.125 22.75,396.8594 Q22.1563,396.5781 21.5313,396.5781 Q20.1875,396.5781 19.5,397.6563 Q18.8125,398.7188 18.8125,400.8125 Q18.8125,402.9063 19.5,403.9844 Q20.1875,405.0469 21.5313,405.0469 Q22.1563,405.0469 22.75,404.7813 Q23.3438,404.5 23.9688,403.9219 L23.9688,406.6406 Z " fill="#000000"/><text fill="#000000" font-family="sans-serif" font-size="14" lengthAdjust="spacing" textLength="94.4521" x="35" y="405.8467">TokenService</text><line style="stroke:#181818;stroke-width:0.5;" x1="7" x2="131.4521" y1="417" y2="417"/><line style="stroke:#181818;stroke-width:0.5;" x1="7" x2="131.4521" y1="425" y2="425"/><text fill="#000000" font-family="sans-serif" font-size="14" lengthAdjust="spacing" textLength="88.04" x="12" y="441.9951">+Generate()</text><text fill="#000000" font-family="sans-serif" font-size="14" lengthAdjust="spacing" textLength="80.1582" x="12" y="458.292">+Validate()</text></g><!--class SQLiteDB--><g class="entity" data-entity="SQLiteDB" data-source-line="28" data-uid="ent0007" id="entity_SQLiteDB"><rect fill="#F1F1F1" height="80.5938" rx="2.5" ry="2.5" style="stroke:#181818;stroke-width:0.5;" width="152.998" x="150.5" y="385"/><ellipse cx="190.2118" cy="401" fill="#ADD1B2" rx="11" ry="11" style="stroke:#181818;stroke-width:1;"/><path d="M193.1805,406.6406 Q192.6024,406.9375 191.9618,407.0781 Q191.3211,407.2344 190.618,407.2344 Q188.118,407.2344 186.7899,405.5938 Q185.4774,403.9375 185.4774,400.8125 Q185.4774,397.6875 186.7899,396.0313 Q188.118,394.375 190.618,394.375 Q191.3211,394.375 191.9618,394.5313 Q192.618,394.6875 193.1805,394.9844 L193.1805,397.7031 Q192.5555,397.125 191.9618,396.8594 Q191.368,396.5781 190.743,396.5781 Q189.3993,396.5781 188.7118,397.6563 Q188.0243,398.7188 188.0243,400.8125 Q188.0243,402.9063 188.7118,403.9844 Q189.3993,405.0469 190.743,405.0469 Q191.368,405.0469 191.9618,404.7813 Q192.5555,404.5 193.1805,403.9219 L193.1805,406.6406 Z " fill="#000000"/><text fill="#000000" font-family="sans-serif" font-size="14" lengthAdjust="spacing" textLength="66.083" x="209.7033" y="405.8467">SQLiteDB</text><line style="stroke:#181818;stroke-width:0.5;" x1="151.5" x2="302.498" y1="417" y2="417"/><line style="stroke:#181818;stroke-width:0.5;" x1="151.5" x2="302.498" y1="425" y2="425"/><text fill="#000000" font-family="sans-serif" font-size="14" lengthAdjust="spacing" textLength="140.998" x="156.5" y="441.9951">+FindUserByEmail()</text><text fill="#000000" font-family="sans-serif" font-size="14" lengthAdjust="spacing" textLength="88.9287" x="156.5" y="458.292">+SaveUser()</text></g><!--class User--><g class="entity" data-entity="User" data-source-line="33" data-uid="ent0008" id="entity_User"><rect fill="#F1F1F1" height="48" rx="2.5" ry="2.5" style="stroke:#181818;stroke-width:0.5;" width="63.9102" x="267" y="503"/><ellipse cx="282" cy="519" fill="#ADD1B2" rx="11" ry="11" style="stroke:#181818;stroke-width:1;"/><path d="M284.9688,524.6406 Q284.3906,524.9375 283.75,525.0781 Q283.1094,525.2344 282.4063,525.2344 Q279.9063,525.2344 278.5781,523.5938 Q277.2656,521.9375 277.2656,518.8125 Q277.2656,515.6875 278.5781,514.0313 Q279.9063,512.375 282.4063,512.375 Q283.1094,512.375 283.75,512.5313 Q284.4063,512.6875 284.9688,512.9844 L284.9688,515.7031 Q284.3438,515.125 283.75,514.8594 Q283.1563,514.5781 282.5313,514.5781 Q281.1875,514.5781 280.5,515.6563 Q279.8125,516.7188 279.8125,518.8125 Q279.8125,520.9063 280.5,521.9844 Q281.1875,523.0469 282.5313,523.0469 Q283.1563,523.0469 283.75,522.7813 Q284.3438,522.5 284.9688,521.9219 L284.9688,524.6406 Z " fill="#000000"/><text fill="#000000" font-family="sans-serif" font-size="14" lengthAdjust="spacing" textLength="31.9102" x="296" y="523.8467">User</text><line style="stroke:#181818;stroke-width:0.5;" x1="268" x2="329.9102" y1="535" y2="535"/><line style="stroke:#181818;stroke-width:0.5;" x1="268" x2="329.9102" y1="543" y2="543"/></g><!--class AnalyzerService--><g class="entity" data-entity="AnalyzerService" data-source-line="35" data-uid="ent0009" id="entity_AnalyzerService"><rect fill="#F1F1F1" height="64.2969" rx="2.5" ry="2.5" style="stroke:#181818;stroke-width:0.5;" width="144.6631" x="303.5" y="275.5"/><ellipse cx="318.5" cy="291.5" fill="#ADD1B2" rx="11" ry="11" style="stroke:#181818;stroke-width:1;"/><path d="M321.4688,297.1406 Q320.8906,297.4375 320.25,297.5781 Q319.6094,297.7344 318.9063,297.7344 Q316.4063,297.7344 315.0781,296.0938 Q313.7656,294.4375 313.7656,291.3125 Q313.7656,288.1875 315.0781,286.5313 Q316.4063,284.875 318.9063,284.875 Q319.6094,284.875 320.25,285.0313 Q320.9063,285.1875 321.4688,285.4844 L321.4688,288.2031 Q320.8438,287.625 320.25,287.3594 Q319.6563,287.0781 319.0313,287.0781 Q317.6875,287.0781 317,288.1563 Q316.3125,289.2188 316.3125,291.3125 Q316.3125,293.4063 317,294.4844 Q317.6875,295.5469 319.0313,295.5469 Q319.6563,295.5469 320.25,295.2813 Q320.8438,295 321.4688,294.4219 L321.4688,297.1406 Z " fill="#000000"/><text fill="#000000" font-family="sans-serif" font-size="14" lengthAdjust="spacing" textLength="112.6631" x="332.5" y="296.3467">AnalyzerService</text><line style="stroke:#181818;stroke-width:0.5;" x1="304.5" x2="447.1631" y1="307.5" y2="307.5"/><line style="stroke:#181818;stroke-width:0.5;" x1="304.5" x2="447.1631" y1="315.5" y2="315.5"/><text fill="#000000" font-family="sans-serif" font-size="14" lengthAdjust="spacing" textLength="77.8203" x="309.5" y="332.4951">+Analyze()</text></g><g class="link" data-entity-1="Main" data-entity-2="Server" data-uid="lnk10" id="link_Main_Server"><polygon fill="#181818" points="227,130.8179,231,121.8179,227,125.8179,223,121.8179,227,130.8179" style="stroke:#181818;stroke-width:1;"/><path d="M227,76.0225 C227,92.5721 227,107.1175 227,124.8179" fill="none" style="stroke:#181818;stroke-width:1;"/><text fill="#000000" font-family="sans-serif" font-size="13" lengthAdjust="spacing" textLength="40.4219" x="229" y="108.0669">start()</text></g><g class="link" data-entity-1="Server" data-entity-2="Config" data-uid="lnk11" id="link_Server_Config"><polygon fill="#181818" points="143.4509,266.5805,152.4179,262.5071,146.771,262.8419,146.4362,257.195,143.4509,266.5805" style="stroke:#181818;stroke-width:1;"/><path d="M191.6183,212.3416 C176.4087,229.4684 162.6522,244.9588 147.435,262.0942" fill="none" style="stroke:#181818;stroke-width:1;"/><text fill="#000000" font-family="sans-serif" font-size="13" lengthAdjust="spacing" textLength="29.7832" x="177" y="244.0669">uses</text></g><g class="link" data-entity-1="Server" data-entity-2="AuthService" data-uid="lnk12" id="link_Server_AuthService"><polygon fill="#181818" points="227,266.5805,231,257.5805,227,261.5805,223,257.5805,227,266.5805" style="stroke:#181818;stroke-width:1;"/><path d="M227,212.3416 C227,229.4684 227,243.4451 227,260.5805" fill="none" style="stroke:#181818;stroke-width:1;"/><text fill="#000000" font-family="sans-serif" font-size="13" lengthAdjust="spacing" textLength="42.4785" x="229" y="244.0669">injects</text></g><g class="link" data-entity-1="Server" data-entity-2="AnalyzerService" data-uid="lnk13" id="link_Server_AnalyzerService"><polygon fill="#181818" points="341.0867,275.1015,337.0696,266.1091,337.369,271.758,331.7201,272.0574,341.0867,275.1015" style="stroke:#181818;stroke-width:1;"/><path d="M271.3015,212.3416 C293.6052,232.4 315.7944,252.3554 336.6254,271.0893" fill="none" style="stroke:#181818;stroke-width:1;"/><text fill="#000000" font-family="sans-serif" font-size="13" lengthAdjust="spacing" textLength="42.4785" x="313" y="244.0669">injects</text></g><g class="link" data-entity-1="AuthService" data-entity-2="SQLiteDB" data-uid="lnk14" id="link_AuthService_SQLiteDB"><polygon fill="#181818" points="227,384.6884,231,375.6884,227,379.6884,223,375.6884,227,384.6884" style="stroke:#181818;stroke-width:1;"/><path d="M227,348.0962 C227,359.9102 227,366.8607 227,378.6884" fill="none" style="stroke:#181818;stroke-width:1;"/></g><g class="link" data-entity-1="AuthService" data-entity-2="TokenService" data-uid="lnk15" id="link_AuthService_TokenService"><polygon fill="#181818" points="122.9577,384.8855,132.5797,382.7835,126.9881,381.9264,127.8452,376.3349,122.9577,384.8855" style="stroke:#181818;stroke-width:1;"/><path d="M173.0673,348.0962 C156.8864,359.9758 143.9767,369.4538 127.7942,381.3346" fill="none" style="stroke:#181818;stroke-width:1;"/></g><g class="link" data-entity-1="AuthService" data-entity-2="User" data-uid="lnk16" id="link_AuthService_User"><polygon fill="#181818" points="307.8367,502.8956,314.4664,495.6123,309.4107,498.1498,306.8731,493.094,307.8367,502.8956" style="stroke:#181818;stroke-width:1;"/><path d="M284.8692,348.3333 C295.8761,358.8747 305.8614,371.2166 312,385 C329.2023,423.6253 319.3093,468.3025 309.7254,497.2007" fill="none" style="stroke:#181818;stroke-width:1;"/></g><g class="link" data-entity-1="SQLiteDB" data-entity-2="User" data-uid="lnk17" id="link_SQLiteDB_User"><polygon fill="#181818" points="282.2505,502.8531,280.2149,493.2169,279.3193,498.8024,273.7338,497.9068,282.2505,502.8531" style="stroke:#181818;stroke-width:1;"/><path d="M255.6632,466.1109 C264.6828,478.5756 270.8267,487.0661 278.7331,497.9922" fill="none" style="stroke:#181818;stroke-width:1;"/></g><!--SRC=[PL51JiCm4Bpx5Si94Ah4EGUa5YYgL2HeWVlYR8DfiexiJL6A-3jsdT24thmxCvxn-AnsM5G89RQs4V0L2J8glpLSeyCAT8dUJqMSUM-45jhoskm9hfKw8F28Xk5R0LnLuNHngNvwP4rkHovX2pOIi71QKM6ya5i5E_93_gtbZIaIVsanJ_mdwmGoC2n7vhIHZtYxqPJe_QL9ihJ5ECcBtHAF10_4v50e2TwmD7cQZkcVbqReRfRuSyFvgoStQ-_3CyiaM-EEud8eY_DVJCQotPCRENVBf57dC2_j5soShI3sfmvrJYOtVNiPU44NkmlSRkT9F3GrQ5lLbed5gmw9mgx631fF8s3OMYpqa_HO-J_laHIyX-gSQkASM9lWC0GEmRlYJe3XBvo0gRVW4nf7hSc7PFqFzFWl]--></g></svg>